<svg width="337" height="177" viewBox="0 0 337 177" fill="none" xmlns="http://www.w3.org/2000/svg">
<mask id="path-1-inside-1_0_1834" fill="white">
<path d="M0.687327 54.5256C49.4643 19.0871 108.208 1.91646e-06 168.5 0C228.792 -1.91646e-06 287.536 19.0871 336.313 54.5256L247.372 176.942C224.447 160.286 196.837 151.315 168.5 151.315C140.163 151.315 112.553 160.286 89.628 176.942L0.687327 54.5256Z"/>
</mask>
<path d="M0.687327 54.5256C49.4643 19.0871 108.208 1.91646e-06 168.5 0C228.792 -1.91646e-06 287.536 19.0871 336.313 54.5256L247.372 176.942C224.447 160.286 196.837 151.315 168.5 151.315C140.163 151.315 112.553 160.286 89.628 176.942L0.687327 54.5256Z" fill="#D9D9D9" stroke="#010023" stroke-width="10" mask="url(#path-1-inside-1_0_1834)"/>
</svg>
