<svg width="609" height="603" viewBox="0 0 609 603" fill="none" xmlns="http://www.w3.org/2000/svg">
<path d="M259.876 49.502C260.987 -14.8975 117.878 142.719 94.1128 151.271C-83.8464 346.234 45.6084 383.812 58.7219 425.795C71.8354 467.779 -8.07446 497.831 17.9948 536.478C44.0641 575.125 109.319 447.88 142.732 460.005C176.144 472.129 90.6683 533.033 100.575 583.066C110.482 633.1 411.717 569.329 379.378 543.959C347.039 518.589 545.506 297.876 511.887 271.502C478.267 245.127 429.213 169.14 397.303 140.584C365.393 112.029 258.488 130.001 259.876 49.502Z" stroke="#459E2E"/>
<path d="M352.49 16.3719C353.601 -48.0277 210.491 109.589 186.726 118.141C8.76712 313.103 138.222 350.681 151.335 392.665C164.449 434.649 84.5389 464.701 110.608 503.348C136.677 541.995 201.933 414.75 235.345 426.874C268.757 438.999 183.282 499.903 193.189 549.936C203.096 599.97 504.33 536.199 471.991 510.829C439.653 485.459 638.12 264.746 604.5 238.372C570.88 211.997 521.827 136.01 489.916 107.454C458.006 78.8987 351.102 96.8712 352.49 16.3719Z" stroke="#459E2E"/>
<path d="M262.864 48.4333C263.975 -15.9662 120.866 141.65 97.1003 150.202C-80.8588 345.165 48.596 382.743 61.7095 424.727C74.823 466.71 -5.08693 496.762 20.9823 535.409C47.0516 574.057 112.307 446.811 145.719 458.936C179.131 471.061 93.6558 531.964 103.563 581.998C113.47 632.031 414.704 568.26 382.365 542.89C350.027 517.52 548.494 296.808 514.874 270.433C481.255 244.059 432.201 168.071 400.291 139.516C368.38 110.96 261.476 128.933 262.864 48.4333Z" stroke="#459E2E"/>
<path d="M265.852 47.3646C266.962 -17.035 123.853 140.581 100.088 149.134C-77.8713 344.096 51.5835 381.674 64.697 423.658C77.8105 465.642 -2.09939 495.693 23.9699 534.341C50.0392 572.988 115.294 445.742 148.707 457.867C182.119 469.992 96.6434 530.895 106.55 580.929C116.457 630.962 417.692 567.191 385.353 541.821C353.014 516.452 551.481 295.739 517.862 269.365C484.242 242.99 435.188 167.002 403.278 138.447C371.368 109.891 264.463 127.864 265.852 47.3646Z" stroke="#459E2E"/>
<path d="M268.839 46.2958C269.95 -18.1037 126.841 139.512 103.075 148.065C-74.8838 343.027 54.571 380.605 67.6845 422.589C80.798 464.573 0.888151 494.624 26.9574 533.272C53.0267 571.919 118.282 444.674 151.694 456.798C185.106 468.923 99.6309 529.826 109.538 579.86C119.445 629.894 420.679 566.123 388.34 540.753C356.002 515.383 554.469 294.67 520.849 268.296C487.23 241.921 438.176 165.934 406.266 137.378C374.355 108.823 267.451 126.795 268.839 46.2958Z" stroke="#459E2E"/>
<path d="M271.827 45.2271C272.937 -19.1724 129.828 138.444 106.063 146.996C-71.8962 341.959 57.5586 379.537 70.6721 421.521C83.7856 463.504 3.87569 493.556 29.945 532.203C56.0142 570.85 121.269 443.605 154.682 455.73C188.094 467.855 102.618 528.758 112.525 578.791C122.432 628.825 423.667 565.054 391.328 539.684C358.989 514.314 557.456 293.602 523.837 267.227C490.217 240.853 441.163 164.865 409.253 136.309C377.343 107.754 270.438 125.727 271.827 45.2271Z" stroke="#459E2E"/>
<path d="M274.814 44.1584C275.925 -20.2411 132.816 137.375 109.05 145.927C-68.9087 340.89 60.5461 378.468 73.6596 420.452C86.7731 462.436 6.86322 492.487 32.9325 531.134C59.0018 569.782 124.257 442.536 157.669 454.661C191.082 466.786 105.606 527.689 115.513 577.723C125.42 627.756 426.654 563.985 394.316 538.615C361.977 513.246 560.444 292.533 526.824 266.158C493.205 239.784 444.151 163.796 412.241 135.241C380.33 106.685 273.426 124.658 274.814 44.1584Z" stroke="#459E2E"/>
<path d="M277.802 43.0897C278.912 -21.3098 135.803 136.306 112.038 144.859C-65.9212 339.821 63.5336 377.399 76.6471 419.383C89.7606 461.367 9.85061 491.418 35.9199 530.066C61.9892 568.713 127.244 441.468 160.657 453.592C194.069 465.717 108.594 526.62 118.5 576.654C128.407 626.688 429.642 562.916 397.303 537.547C364.964 512.177 563.431 291.464 529.812 265.09C496.192 238.715 447.138 162.727 415.228 134.172C383.318 105.617 276.413 123.589 277.802 43.0897Z" stroke="#459E2E"/>
<path d="M280.789 42.021C281.9 -22.3785 138.791 135.238 115.026 143.79C-62.9336 338.753 66.5212 376.331 79.6347 418.314C92.7482 460.298 12.8382 490.35 38.9074 528.997C64.9767 567.644 130.232 440.399 163.644 452.524C197.057 464.648 111.581 525.552 121.488 575.585C131.395 625.619 432.629 561.848 400.291 536.478C367.952 511.108 566.419 290.395 532.799 264.021C499.18 237.646 450.126 161.659 418.216 133.103C386.305 104.548 279.401 122.52 280.789 42.021Z" stroke="#459E2E"/>
<path d="M283.777 40.9523C284.887 -23.4473 141.778 134.169 118.013 142.721C-59.9461 337.684 69.5087 375.262 82.6222 417.246C95.7357 459.229 15.8257 489.281 41.895 527.928C67.9642 566.576 133.219 439.33 166.632 451.455C200.044 463.58 114.569 524.483 124.476 574.517C134.382 624.55 435.617 560.779 403.278 535.409C370.939 510.039 569.406 289.327 535.787 262.952C502.167 236.578 453.114 160.59 421.203 132.035C389.293 103.479 282.388 121.452 283.777 40.9523Z" stroke="#459E2E"/>
<path d="M286.764 39.8836C287.875 -24.516 144.766 133.1 121.001 141.653C-56.9586 336.615 72.4962 374.193 85.6097 416.177C98.7232 458.161 18.8132 488.212 44.8825 526.859C70.9518 565.507 136.207 438.261 169.619 450.386C203.032 462.511 117.556 523.414 127.463 573.448C137.37 623.481 438.605 559.71 406.266 534.341C373.927 508.971 572.394 288.258 538.774 261.884C505.155 235.509 456.101 159.521 424.191 130.966C392.28 102.41 285.376 120.383 286.764 39.8836Z" stroke="#459E2E"/>
<path d="M289.752 38.8149C290.862 -25.5847 147.753 132.032 123.988 140.584C-53.971 335.546 75.4838 373.124 88.5973 415.108C101.711 457.092 21.8008 487.144 47.8701 525.791C73.9393 564.438 139.195 437.193 172.607 449.318C206.019 461.442 120.544 522.345 130.451 572.379C140.358 622.413 441.592 558.642 409.253 533.272C376.914 507.902 575.381 287.189 541.762 260.815C508.142 234.44 459.089 158.453 427.178 129.897C395.268 101.342 288.364 119.314 289.752 38.8149Z" stroke="#459E2E"/>
<path d="M292.739 37.7461C293.85 -26.6534 150.741 130.963 126.976 139.515C-50.9835 334.478 78.4713 372.056 91.5848 414.04C104.698 456.023 24.7883 486.075 50.8576 524.722C76.9269 563.369 142.182 436.124 175.594 448.249C209.007 460.374 123.531 521.277 133.438 571.31C143.345 621.344 444.58 557.573 412.241 532.203C379.902 506.833 578.369 286.121 544.749 259.746C511.13 233.372 462.076 157.384 430.166 128.828C398.256 100.273 291.351 118.246 292.739 37.7461Z" stroke="#459E2E"/>
<path d="M295.727 36.6774C296.838 -27.7221 153.728 129.894 129.963 138.446C-47.9959 333.409 81.4589 370.987 94.5724 412.971C107.686 454.955 27.7759 485.006 53.8451 523.653C79.9144 562.301 145.17 435.055 178.582 447.18C211.994 459.305 126.519 520.208 136.426 570.242C146.333 620.275 447.567 556.504 415.228 531.134C382.89 505.765 581.357 285.052 547.737 258.677C514.117 232.303 465.064 156.315 433.153 127.76C401.243 99.2043 294.339 117.177 295.727 36.6774Z" stroke="#459E2E"/>
<path d="M298.714 35.6087C299.825 -28.7908 156.716 128.825 132.951 137.378C-45.0084 332.34 84.4464 369.918 97.5599 411.902C110.673 453.886 30.7634 483.937 56.8327 522.585C82.9019 561.232 148.157 433.987 181.57 446.111C214.982 458.236 129.506 519.139 139.413 569.173C149.32 619.207 450.555 555.435 418.216 530.066C385.877 504.696 584.344 283.983 550.725 257.609C517.105 231.234 468.051 155.246 436.141 126.691C404.231 98.1356 297.326 116.108 298.714 35.6087Z" stroke="#459E2E"/>
<path d="M301.702 34.54C302.813 -29.8595 159.703 127.757 135.938 136.309C-42.0209 331.272 87.4339 368.85 100.547 410.833C113.661 452.817 33.7509 482.869 59.8202 521.516C85.8895 560.163 151.145 432.918 184.557 445.043C217.969 457.167 132.494 518.071 142.401 568.104C152.308 618.138 453.542 554.367 421.203 528.997C388.865 503.627 587.332 282.914 553.712 256.54C520.092 230.165 471.039 154.178 439.128 125.622C407.218 97.0669 300.314 115.039 301.702 34.54Z" stroke="#459E2E"/>
<path d="M304.69 33.4713C305.8 -30.9283 162.691 126.688 138.926 135.24C-39.0334 330.203 90.4214 367.781 103.535 409.765C116.648 451.748 36.7384 481.8 62.8077 520.447C88.877 559.095 154.132 431.849 187.545 443.974C220.957 456.099 135.481 517.002 145.388 567.036C155.295 617.069 456.53 553.298 424.191 527.928C391.852 502.558 590.319 281.846 556.7 255.471C523.08 229.097 474.026 153.109 442.116 124.554C410.206 95.9981 303.301 113.971 304.69 33.4713Z" stroke="#459E2E"/>
<path d="M307.677 32.4026C308.788 -31.9969 165.679 125.619 141.913 134.172C-36.0458 329.134 93.409 366.712 106.522 408.696C119.636 450.68 39.726 480.731 65.7952 519.379C91.8645 558.026 157.12 430.78 190.532 442.905C223.944 455.03 138.469 515.933 148.376 565.967C158.283 616 459.517 552.229 427.178 526.86C394.84 501.49 593.307 280.777 559.687 254.403C526.068 228.028 477.014 152.04 445.104 123.485C413.193 94.9295 306.289 112.902 307.677 32.4026Z" stroke="#459E2E"/>
<path d="M310.665 31.3339C311.775 -33.0657 168.666 124.551 144.901 133.103C-33.0583 328.065 96.3965 365.643 109.51 407.627C122.624 449.611 42.7135 479.663 68.7828 518.31C94.8521 556.957 160.107 429.712 193.52 441.836C226.932 453.961 141.456 514.864 151.363 564.898C161.27 614.932 462.505 551.161 430.166 525.791C397.827 500.421 596.294 279.708 562.675 253.334C529.055 226.959 480.001 150.972 448.091 122.416C416.181 93.8607 309.276 111.833 310.665 31.3339Z" stroke="#459E2E"/>
<path d="M313.652 30.2651C314.763 -34.1344 171.654 123.482 147.888 132.034C-30.0707 326.997 99.384 364.575 112.498 406.559C125.611 448.542 45.701 478.594 71.7703 517.241C97.8396 555.888 163.095 428.643 196.507 440.768C229.92 452.893 144.444 513.796 154.351 563.829C164.258 613.863 465.492 550.092 433.154 524.722C400.815 499.352 599.282 278.64 565.662 252.265C532.043 225.891 482.989 149.903 451.079 121.347C419.168 92.792 312.264 110.765 313.652 30.2651Z" stroke="#459E2E"/>
<path d="M316.64 29.1964C317.75 -35.2031 174.641 122.413 150.876 130.965C-27.0832 325.928 102.372 363.506 115.485 405.49C128.599 447.474 48.6886 477.525 74.7579 516.172C100.827 554.82 166.082 427.574 199.495 439.699C232.907 451.824 147.432 512.727 157.338 562.761C167.245 612.794 468.48 549.023 436.141 523.653C403.802 498.284 602.269 277.571 568.65 251.196C535.03 224.822 485.976 148.834 454.066 120.279C422.156 91.7233 315.251 109.696 316.64 29.1964Z" stroke="#459E2E"/>
<path d="M319.627 28.1277C320.738 -36.2718 177.629 121.344 153.863 129.897C-24.0957 324.859 105.359 362.437 118.473 404.421C131.586 446.405 51.6761 476.456 77.7454 515.104C103.815 553.751 169.07 426.506 202.482 438.63C235.895 450.755 150.419 511.658 160.326 561.692C170.233 611.726 471.467 547.954 439.129 522.585C406.79 497.215 605.257 276.502 571.637 250.128C538.018 223.753 488.964 147.765 457.054 119.21C425.143 90.6546 318.239 108.627 319.627 28.1277Z" stroke="#459E2E"/>
<path d="M322.615 27.059C323.725 -37.3405 180.616 120.276 156.851 128.828C-21.1081 323.791 108.347 361.369 121.46 403.352C134.574 445.336 54.6637 475.388 80.7329 514.035C106.802 552.682 172.057 425.437 205.47 437.562C238.882 449.686 153.407 510.59 163.313 560.623C173.22 610.657 474.455 546.886 442.116 521.516C409.777 496.146 608.244 275.433 574.625 249.059C541.005 222.684 491.952 146.697 460.041 118.141C428.131 89.5859 321.226 107.558 322.615 27.059Z" stroke="#459E2E"/>
<path d="M325.602 25.9903C326.713 -38.4092 183.604 119.207 159.839 127.759C-18.1206 322.722 111.334 360.3 124.448 402.284C137.561 444.267 57.6512 474.319 83.7205 512.966C109.79 551.614 175.045 424.368 208.457 436.493C241.87 448.618 156.394 509.521 166.301 559.555C176.208 609.588 477.442 545.817 445.104 520.447C412.765 495.078 611.232 274.365 577.612 247.99C543.993 221.616 494.939 145.628 463.029 117.073C431.118 88.5172 324.214 106.49 325.602 25.9903Z" stroke="#459E2E"/>
<path d="M328.59 24.9216C329.7 -39.4779 186.591 118.138 162.826 126.691C-15.1331 321.653 114.322 359.231 127.435 401.215C140.549 443.199 60.6387 473.25 86.708 511.898C112.777 550.545 178.032 423.299 211.445 435.424C244.857 447.549 159.382 508.452 169.289 558.486C179.195 608.519 480.43 544.748 448.091 519.379C415.752 494.009 614.219 273.296 580.6 246.922C546.98 220.547 497.927 144.559 466.016 116.004C434.106 87.4484 327.202 105.421 328.59 24.9216Z" stroke="#459E2E"/>
<path d="M331.577 23.8529C332.688 -40.5467 189.579 117.07 165.814 125.622C-12.1455 320.584 117.309 358.162 130.423 400.146C143.536 442.13 63.6263 472.182 89.6956 510.829C115.765 549.476 181.02 422.231 214.432 434.355C247.845 446.48 162.369 507.383 172.276 557.417C182.183 607.451 483.418 543.68 451.079 518.31C418.74 492.94 617.207 272.227 583.587 245.853C549.968 219.478 500.914 143.491 469.004 114.935C437.094 86.3797 330.189 104.352 331.577 23.8529Z" stroke="#459E2E"/>
<path d="M334.565 22.7841C335.675 -41.6154 192.566 116.001 168.801 124.553C-9.15797 319.516 120.297 357.094 133.41 399.078C146.524 441.061 66.6138 471.113 92.6831 509.76C118.752 548.407 184.008 421.162 217.42 433.287C250.832 445.412 165.357 506.315 175.264 556.348C185.171 606.382 486.405 542.611 454.066 517.241C421.728 491.871 620.194 271.159 586.575 244.784C552.955 218.41 503.902 142.422 471.991 113.866C440.081 85.311 333.177 103.284 334.565 22.7841Z" stroke="#459E2E"/>
<path d="M337.552 21.7154C338.663 -42.6841 195.554 114.932 171.789 123.484C-6.17044 318.447 123.284 356.025 136.398 398.009C149.511 439.993 69.6013 470.044 95.6706 508.691C121.74 547.339 186.995 420.093 220.407 432.218C253.82 444.343 168.344 505.246 178.251 555.28C188.158 605.313 489.393 541.542 457.054 516.172C424.715 490.803 623.182 270.09 589.562 243.715C555.943 217.341 506.889 141.353 474.979 112.798C443.069 84.2423 336.164 102.215 337.552 21.7154Z" stroke="#459E2E"/>
<path d="M340.54 20.6467C341.651 -43.7528 198.541 113.863 174.776 122.416C-3.18292 317.378 126.272 354.956 139.385 396.94C152.499 438.924 72.5889 468.975 98.6581 507.623C124.727 546.27 189.983 419.025 223.395 431.149C256.807 443.274 171.332 504.177 181.239 554.211C191.146 604.245 492.38 540.474 460.041 515.104C427.703 489.734 626.17 269.021 592.55 242.647C558.93 216.272 509.877 140.284 477.966 111.729C446.056 83.1736 339.152 101.146 340.54 20.6467Z" stroke="#459E2E"/>
<path d="M343.527 19.578C344.638 -44.8215 201.529 112.795 177.764 121.347C-0.195389 316.31 129.259 353.888 142.373 395.871C155.486 437.855 75.5764 467.907 101.646 506.554C127.715 545.201 192.97 417.956 226.383 430.081C259.795 442.205 174.319 503.109 184.226 553.142C194.133 603.176 495.368 539.405 463.029 514.035C430.69 488.665 629.157 267.952 595.538 241.578C561.918 215.203 512.864 139.216 480.954 110.66C449.044 82.1049 342.139 100.077 343.527 19.578Z" stroke="#459E2E"/>
<path d="M346.515 18.5093C347.626 -45.8902 204.517 111.726 180.751 120.278C2.79216 315.241 132.247 352.819 145.36 394.803C158.474 436.786 78.564 466.838 104.633 505.485C130.702 544.133 195.958 416.887 229.37 429.012C262.782 441.137 177.307 502.04 187.214 552.074C197.121 602.107 498.355 538.336 466.016 512.966C433.678 487.597 632.145 266.884 598.525 240.509C564.906 214.135 515.852 138.147 483.942 109.592C452.031 81.0362 345.127 99.0087 346.515 18.5093Z" stroke="#459E2E"/>
<path d="M349.503 17.4406C350.613 -46.959 207.504 110.657 183.739 119.21C5.77968 314.172 135.234 351.75 148.348 393.734C161.461 435.718 81.5515 465.769 107.621 504.417C133.69 543.064 198.945 415.818 232.358 427.943C265.77 440.068 180.294 500.971 190.201 551.005C200.108 601.039 501.343 537.267 469.004 511.898C436.665 486.528 635.132 265.815 601.513 239.441C567.893 213.066 518.839 137.078 486.929 108.523C455.019 79.9674 348.114 97.94 349.503 17.4406Z" stroke="#459E2E"/>
</svg>
