<?xml version="1.0" encoding="utf-8"?>
<!-- Generator: Adobe Illustrator 27.1.1, SVG Export Plug-In . SVG Version: 6.00 Build 0)  -->
<svg version="1.1" id="Layer_1" xmlns="http://www.w3.org/2000/svg" xmlns:xlink="http://www.w3.org/1999/xlink" x="0px" y="0px"
	 viewBox="0 0 571 571" style="enable-background:new 0 0 571 571;" xml:space="preserve">
<style type="text/css">
	.st0{fill:#FFFFFF;filter:url(#Adobe_OpacityMaskFilter);}
	
		.st1{mask:url(#path-1-inside-1_109_270_00000146487315949129010350000005810784115347301518_);fill:#D9D9D9;stroke:#010023;stroke-width:10;}
	.st2{fill:#FFFFFF;filter:url(#Adobe_OpacityMaskFilter_00000098924186689257397710000008581876171990606731_);}
	
		.st3{mask:url(#path-2-inside-2_109_270_00000043445863591171827810000004004945514813148292_);fill:#D9D9D9;stroke:#010023;stroke-width:10;}
	.st4{fill:#FFFFFF;filter:url(#Adobe_OpacityMaskFilter_00000101103729939597105600000011155915045210411709_);}
	
		.st5{mask:url(#path-3-inside-3_109_270_00000035506766831810762880000010163126192152570041_);fill:#D9D9D9;stroke:#010023;stroke-width:10;}
	.st6{fill:#FFFFFF;filter:url(#Adobe_OpacityMaskFilter_00000145040065429192714150000009919189889066566304_);}
	
		.st7{mask:url(#path-4-inside-4_109_270_00000059309450574304530990000001135609922399739307_);fill:#D9D9D9;stroke:#010023;stroke-width:10;}
	.st8{fill:#FFFFFF;filter:url(#Adobe_OpacityMaskFilter_00000021081153992421621680000005828581334126525073_);}
	
		.st9{mask:url(#path-5-inside-5_109_270_00000041994985837517477090000004371022445238643603_);fill:#D9D9D9;stroke:#010023;stroke-width:10;}
	.st10{fill:none;}
</style>
<defs>
	<filter id="Adobe_OpacityMaskFilter" filterUnits="userSpaceOnUse" x="7.7" y="320.7" width="282.8" height="255.3">
		<feColorMatrix  type="matrix" values="1 0 0 0 0  0 1 0 0 0  0 0 1 0 0  0 0 0 1 0"/>
	</filter>
</defs>
<mask maskUnits="userSpaceOnUse" x="7.7" y="320.7" width="282.8" height="255.3" id="path-1-inside-1_109_270_00000146487315949129010350000005810784115347301518_">
	<path class="st0" d="M285.5,571c-60.3,0-119-19.1-167.8-54.5C68.9,481,32.6,431.1,14,373.7L157.9,327c8.8,27,25.8,50.4,48.7,67.1
		c22.9,16.7,50.5,25.6,78.9,25.6V571z"/>
</mask>
<path class="st1" d="M285.5,571c-60.3,0-119-19.1-167.8-54.5C68.9,481,32.6,431.1,14,373.7L157.9,327c8.8,27,25.8,50.4,48.7,67.1
	c22.9,16.7,50.5,25.6,78.9,25.6V571z"/>
<defs>
	
		<filter id="Adobe_OpacityMaskFilter_00000005260674920856975370000011677621447535016369_" filterUnits="userSpaceOnUse" x="280.5" y="320.7" width="282.8" height="255.3">
		<feColorMatrix  type="matrix" values="1 0 0 0 0  0 1 0 0 0  0 0 1 0 0  0 0 0 1 0"/>
	</filter>
</defs>
<mask maskUnits="userSpaceOnUse" x="280.5" y="320.7" width="282.8" height="255.3" id="path-2-inside-2_109_270_00000043445863591171827810000004004945514813148292_">
	<path style="fill:#FFFFFF;filter:url(#Adobe_OpacityMaskFilter_00000005260674920856975370000011677621447535016369_);" d="
		M557,373.7c-18.6,57.3-54.9,107.3-103.7,142.8C404.5,551.9,345.8,571,285.5,571V419.7c28.3,0,55.9-9,78.9-25.6
		c22.9-16.7,40-40.1,48.7-67.1L557,373.7z"/>
</mask>
<path class="st3" d="M557,373.7c-18.6,57.3-54.9,107.3-103.7,142.8C404.5,551.9,345.8,571,285.5,571V419.7c28.3,0,55.9-9,78.9-25.6
	c22.9-16.7,40-40.1,48.7-67.1L557,373.7z"/>
<defs>
	
		<filter id="Adobe_OpacityMaskFilter_00000080165619772505240940000005012754899291263379_" filterUnits="userSpaceOnUse" x="357.4" y="47.5" width="218.6" height="332.5">
		<feColorMatrix  type="matrix" values="1 0 0 0 0  0 1 0 0 0  0 0 1 0 0  0 0 0 1 0"/>
	</filter>
</defs>
<mask maskUnits="userSpaceOnUse" x="357.4" y="47.5" width="218.6" height="332.5" id="path-3-inside-3_109_270_00000035506766831810762880000010163126192152570041_">
	<path style="fill:#FFFFFF;filter:url(#Adobe_OpacityMaskFilter_00000080165619772505240940000005012754899291263379_);" d="
		M453.3,54.5C502.1,90,538.4,139.9,557,197.3c18.6,57.3,18.6,119.1,0,176.4L413.1,327c8.8-26.9,8.8-56,0-82.9
		c-8.8-27-25.8-50.4-48.7-67.1L453.3,54.5z"/>
</mask>
<path class="st5" d="M453.3,54.5C502.1,90,538.4,139.9,557,197.3c18.6,57.3,18.6,119.1,0,176.4L413.1,327c8.8-26.9,8.8-56,0-82.9
	c-8.8-27-25.8-50.4-48.7-67.1L453.3,54.5z"/>
<defs>
	
		<filter id="Adobe_OpacityMaskFilter_00000073679756449427605490000002666502910362245805_" filterUnits="userSpaceOnUse" x="110.7" y="-5" width="349.6" height="188.9">
		<feColorMatrix  type="matrix" values="1 0 0 0 0  0 1 0 0 0  0 0 1 0 0  0 0 0 1 0"/>
	</filter>
</defs>
<mask maskUnits="userSpaceOnUse" x="110.7" y="-5" width="349.6" height="188.9" id="path-4-inside-4_109_270_00000059309450574304530990000001135609922399739307_">
	<path style="fill:#FFFFFF;filter:url(#Adobe_OpacityMaskFilter_00000073679756449427605490000002666502910362245805_);" d="
		M117.7,54.5C166.5,19.1,225.2,0,285.5,0s119,19.1,167.8,54.5l-88.9,122.4c-22.9-16.7-50.5-25.6-78.9-25.6s-55.9,9-78.9,25.6
		L117.7,54.5z"/>
</mask>
<path class="st7" d="M117.7,54.5C166.5,19.1,225.2,0,285.5,0s119,19.1,167.8,54.5l-88.9,122.4c-22.9-16.7-50.5-25.6-78.9-25.6
	s-55.9,9-78.9,25.6L117.7,54.5z"/>
<defs>
	
		<filter id="Adobe_OpacityMaskFilter_00000047745346958953113260000011953725054323867043_" filterUnits="userSpaceOnUse" x="-5" y="47.5" width="218.6" height="332.5">
		<feColorMatrix  type="matrix" values="1 0 0 0 0  0 1 0 0 0  0 0 1 0 0  0 0 0 1 0"/>
	</filter>
</defs>
<mask maskUnits="userSpaceOnUse" x="-5" y="47.5" width="218.6" height="332.5" id="path-5-inside-5_109_270_00000041994985837517477090000004371022445238643603_">
	<path style="fill:#FFFFFF;filter:url(#Adobe_OpacityMaskFilter_00000047745346958953113260000011953725054323867043_);" d="
		M14,373.7c-18.6-57.3-18.6-119.1,0-176.4C32.6,139.9,68.9,90,117.7,54.5l88.9,122.4c-22.9,16.7-40,40.1-48.7,67.1
		c-8.8,26.9-8.8,56,0,82.9L14,373.7z"/>
</mask>
<path class="st9" d="M14,373.7c-18.6-57.3-18.6-119.1,0-176.4C32.6,139.9,68.9,90,117.7,54.5l88.9,122.4
	c-22.9,16.7-40,40.1-48.7,67.1c-8.8,26.9-8.8,56,0,82.9L14,373.7z"/>
<path id="SVGID_x5F_1_x5F_" class="st10" d="M183,438c-85.9-57.4-109-173.6-51.6-259.5s173.6-109,259.5-51.6s109,173.6,51.6,259.5
	S268.9,495.4,183,438z"/>
<text><textPath  xlink:href="#SVGID_x5F_1_x5F_" startOffset="93.3594%">
<tspan  style="font-family:'AvenirLTStd-Book'; font-size:22px;">       DIGITALIZACIÓN            INTERVENCIÓN	      	ANÁLISIS		   REDUCCIÓN	     REUTILIZACIÓN</tspan></textPath>
</text>
</svg>
