<svg width="571" height="571" viewBox="0 0 571 571" fill="none" xmlns="http://www.w3.org/2000/svg">
<mask id="path-1-inside-1_109_270" fill="white">
<path d="M285.5 571C225.208 571 166.464 551.913 117.687 516.474C68.9103 481.036 32.6045 431.065 13.9734 373.724L157.882 326.965C166.639 353.916 183.703 377.402 206.628 394.058C229.553 410.714 257.163 419.685 285.5 419.685L285.5 571Z"/>
</mask>
<path d="M285.5 571C225.208 571 166.464 551.913 117.687 516.474C68.9103 481.036 32.6045 431.065 13.9734 373.724L157.882 326.965C166.639 353.916 183.703 377.402 206.628 394.058C229.553 410.714 257.163 419.685 285.5 419.685L285.5 571Z" fill="#D9D9D9" stroke="#010023" stroke-width="10" mask="url(#path-1-inside-1_109_270)"/>
<mask id="path-2-inside-2_109_270" fill="white">
<path d="M557.027 373.724C538.395 431.065 502.09 481.036 453.313 516.474C404.536 551.913 345.792 571 285.5 571L285.5 419.685C313.837 419.685 341.447 410.714 364.372 394.058C387.297 377.402 404.361 353.916 413.118 326.965L557.027 373.724Z"/>
</mask>
<path d="M557.027 373.724C538.395 431.065 502.09 481.036 453.313 516.474C404.536 551.913 345.792 571 285.5 571L285.5 419.685C313.837 419.685 341.447 410.714 364.372 394.058C387.297 377.402 404.361 353.916 413.118 326.965L557.027 373.724Z" fill="#D9D9D9" stroke="#010023" stroke-width="10" mask="url(#path-2-inside-2_109_270)"/>
<mask id="path-3-inside-3_109_270" fill="white">
<path d="M453.313 54.5257C502.09 89.9642 538.395 139.935 557.027 197.276C575.658 254.616 575.658 316.384 557.027 373.724L413.118 326.965C421.874 300.015 421.874 270.985 413.118 244.035C404.361 217.084 387.297 193.598 364.372 176.942L453.313 54.5257Z"/>
</mask>
<path d="M453.313 54.5257C502.09 89.9642 538.395 139.935 557.027 197.276C575.658 254.616 575.658 316.384 557.027 373.724L413.118 326.965C421.874 300.015 421.874 270.985 413.118 244.035C404.361 217.084 387.297 193.598 364.372 176.942L453.313 54.5257Z" fill="#D9D9D9" stroke="#010023" stroke-width="10" mask="url(#path-3-inside-3_109_270)"/>
<mask id="path-4-inside-4_109_270" fill="white">
<path d="M117.687 54.5256C166.464 19.0871 225.208 1.91646e-06 285.5 0C345.792 -1.91646e-06 404.536 19.0871 453.313 54.5256L364.372 176.942C341.447 160.286 313.837 151.315 285.5 151.315C257.163 151.315 229.553 160.286 206.628 176.942L117.687 54.5256Z"/>
</mask>
<path d="M117.687 54.5256C166.464 19.0871 225.208 1.91646e-06 285.5 0C345.792 -1.91646e-06 404.536 19.0871 453.313 54.5256L364.372 176.942C341.447 160.286 313.837 151.315 285.5 151.315C257.163 151.315 229.553 160.286 206.628 176.942L117.687 54.5256Z" fill="#D9D9D9" stroke="#010023" stroke-width="10" mask="url(#path-4-inside-4_109_270)"/>
<mask id="path-5-inside-5_109_270" fill="white">
<path d="M13.9734 373.724C-4.65778 316.384 -4.65779 254.617 13.9733 197.276C32.6044 139.935 68.9102 89.9644 117.687 54.5258L206.628 176.942C183.703 193.598 166.639 217.084 157.882 244.035C149.126 270.985 149.126 300.015 157.882 326.965L13.9734 373.724Z"/>
</mask>
<path d="M13.9734 373.724C-4.65778 316.384 -4.65779 254.617 13.9733 197.276C32.6044 139.935 68.9102 89.9644 117.687 54.5258L206.628 176.942C183.703 193.598 166.639 217.084 157.882 244.035C149.126 270.985 149.126 300.015 157.882 326.965L13.9734 373.724Z" fill="#D9D9D9" stroke="#010023" stroke-width="10" mask="url(#path-5-inside-5_109_270)"/>
<path d="M286 178.333C288.946 178.333 291.333 175.946 291.333 173C291.333 170.054 288.946 167.667 286 167.667C283.054 167.667 280.667 170.054 280.667 173C280.667 175.946 283.054 178.333 286 178.333ZM287 396V173H285V396H287Z" fill="#F0F0F0"/>
</svg>
