<svg width="609" height="603" viewBox="0 0 609 603" fill="none" xmlns="http://www.w3.org/2000/svg">
<path d="M259.876 49.5C260.987 -14.8995 117.878 142.717 94.1128 151.269C-83.8464 346.232 45.6084 383.81 58.7219 425.793C71.8354 467.777 -8.07446 497.829 17.9948 536.476C44.0641 575.123 109.319 447.878 142.732 460.003C176.144 472.127 90.6683 533.031 100.575 583.064C110.482 633.098 411.717 569.327 379.378 543.957C347.039 518.587 545.506 297.875 511.887 271.5C478.267 245.125 429.213 169.138 397.303 140.582C365.393 112.027 258.488 129.999 259.876 49.5Z" stroke="#94A8D6"/>
<path d="M352.49 16.3699C353.601 -48.0296 210.491 109.587 186.726 118.139C8.76712 313.102 138.222 350.679 151.335 392.663C164.449 434.647 84.5389 464.699 110.608 503.346C136.677 541.993 201.933 414.748 235.345 426.873C268.757 438.997 183.282 499.901 193.189 549.934C203.096 599.968 504.33 536.197 471.991 510.827C439.653 485.457 638.12 264.744 604.5 238.37C570.88 211.995 521.827 136.008 489.916 107.452C458.006 78.8968 351.102 96.8693 352.49 16.3699Z" stroke="#94A8D6"/>
<path d="M262.864 48.4313C263.975 -15.9682 120.866 141.648 97.1003 150.2C-80.8588 345.163 48.596 382.741 61.7095 424.725C74.823 466.709 -5.08693 496.76 20.9823 535.407C47.0516 574.055 112.307 446.809 145.719 458.934C179.131 471.059 93.6558 531.962 103.563 581.996C113.47 632.029 414.704 568.258 382.365 542.888C350.027 517.518 548.494 296.806 514.874 270.431C481.255 244.057 432.201 168.069 400.291 139.514C368.38 110.958 261.476 128.931 262.864 48.4313Z" stroke="#94A8D6"/>
<path d="M265.852 47.3626C266.962 -17.0369 123.853 140.579 100.088 149.132C-77.8713 344.094 51.5835 381.672 64.697 423.656C77.8105 465.64 -2.09939 495.691 23.9699 534.339C50.0392 572.986 115.294 445.74 148.707 457.865C182.119 469.99 96.6434 530.893 106.55 580.927C116.457 630.961 417.692 567.189 385.353 541.82C353.014 516.45 551.481 295.737 517.862 269.363C484.242 242.988 435.188 167 403.278 138.445C371.368 109.889 264.463 127.862 265.852 47.3626Z" stroke="#94A8D6"/>
<path d="M268.839 46.2939C269.95 -18.1056 126.841 139.511 103.075 148.063C-74.8838 343.026 54.571 380.603 67.6845 422.587C80.798 464.571 0.888151 494.623 26.9574 533.27C53.0267 571.917 118.282 444.672 151.694 456.797C185.106 468.921 99.6309 529.825 109.538 579.858C119.445 629.892 420.679 566.121 388.34 540.751C356.002 515.381 554.469 294.668 520.849 268.294C487.23 241.919 438.176 165.932 406.266 137.376C374.355 108.821 267.451 126.793 268.839 46.2939Z" stroke="#94A8D6"/>
<path d="M271.827 45.2252C272.937 -19.1743 129.828 138.442 106.063 146.994C-71.8962 341.957 57.5586 379.535 70.6721 421.519C83.7856 463.502 3.87569 493.554 29.945 532.201C56.0142 570.849 121.269 443.603 154.682 455.728C188.094 467.853 102.618 528.756 112.525 578.789C122.432 628.823 423.667 565.052 391.328 539.682C358.989 514.312 557.456 293.6 523.837 267.225C490.217 240.851 441.163 164.863 409.253 136.307C377.343 107.752 270.438 125.725 271.827 45.2252Z" stroke="#94A8D6"/>
<path d="M274.814 44.1565C275.925 -20.243 132.816 137.373 109.05 145.926C-68.9087 340.888 60.5461 378.466 73.6596 420.45C86.7731 462.434 6.86322 492.485 32.9325 531.132C59.0018 569.78 124.257 442.534 157.669 454.659C191.082 466.784 105.606 527.687 115.513 577.721C125.42 627.754 426.654 563.983 394.316 538.613C361.977 513.244 560.444 292.531 526.824 266.156C493.205 239.782 444.151 163.794 412.241 135.239C380.33 106.683 273.426 124.656 274.814 44.1565Z" stroke="#94A8D6"/>
<path d="M277.802 43.0878C278.912 -21.3118 135.803 136.304 112.038 144.857C-65.9212 339.819 63.5336 377.397 76.6471 419.381C89.7606 461.365 9.85061 491.416 35.9199 530.064C61.9892 568.711 127.244 441.466 160.657 453.59C194.069 465.715 108.594 526.618 118.5 576.652C128.407 626.686 429.642 562.914 397.303 537.545C364.964 512.175 563.431 291.462 529.812 265.088C496.192 238.713 447.138 162.725 415.228 134.17C383.318 105.615 276.413 123.587 277.802 43.0878Z" stroke="#94A8D6"/>
<path d="M280.789 42.019C281.9 -22.3805 138.791 135.236 115.026 143.788C-62.9336 338.751 66.5212 376.329 79.6347 418.312C92.7482 460.296 12.8382 490.348 38.9074 528.995C64.9767 567.642 130.232 440.397 163.644 452.522C197.057 464.646 111.581 525.55 121.488 575.583C131.395 625.617 432.629 561.846 400.291 536.476C367.952 511.106 566.419 290.394 532.799 264.019C499.18 237.644 450.126 161.657 418.216 133.101C386.305 104.546 279.401 122.518 280.789 42.019Z" stroke="#94A8D6"/>
<path d="M283.777 40.9503C284.887 -23.4492 141.778 134.167 118.013 142.719C-59.9461 337.682 69.5087 375.26 82.6222 417.244C95.7357 459.227 15.8257 489.279 41.895 527.926C67.9642 566.574 133.219 439.328 166.632 451.453C200.044 463.578 114.569 524.481 124.476 574.515C134.382 624.548 435.617 560.777 403.278 535.407C370.939 510.038 569.406 289.325 535.787 262.95C502.167 236.576 453.114 160.588 421.203 132.033C389.293 103.477 282.388 121.45 283.777 40.9503Z" stroke="#94A8D6"/>
<path d="M286.764 39.8816C287.875 -24.5179 144.766 133.098 121.001 141.651C-56.9586 336.613 72.4962 374.191 85.6097 416.175C98.7232 458.159 18.8132 488.21 44.8825 526.858C70.9518 565.505 136.207 438.259 169.619 450.384C203.032 462.509 117.556 523.412 127.463 573.446C137.37 623.479 438.605 559.708 406.266 534.339C373.927 508.969 572.394 288.256 538.774 261.882C505.155 235.507 456.101 159.519 424.191 130.964C392.28 102.408 285.376 120.381 286.764 39.8816Z" stroke="#94A8D6"/>
<path d="M289.752 38.8129C290.862 -25.5866 147.753 132.03 123.988 140.582C-53.971 335.545 75.4838 373.123 88.5973 415.106C101.711 457.09 21.8008 487.142 47.8701 525.789C73.9393 564.436 139.195 437.191 172.607 449.316C206.019 461.44 120.544 522.343 130.451 572.377C140.358 622.411 441.592 558.64 409.253 533.27C376.914 507.9 575.381 287.187 541.762 260.813C508.142 234.438 459.089 158.451 427.178 129.895C395.268 101.34 288.364 119.312 289.752 38.8129Z" stroke="#94A8D6"/>
<path d="M292.739 37.7442C293.85 -26.6553 150.741 130.961 126.976 139.513C-50.9835 334.476 78.4713 372.054 91.5848 414.038C104.698 456.021 24.7883 486.073 50.8576 524.72C76.9269 563.367 142.182 436.122 175.594 448.247C209.007 460.372 123.531 521.275 133.438 571.308C143.345 621.342 444.58 557.571 412.241 532.201C379.902 506.831 578.369 286.119 544.749 259.744C511.13 233.37 462.076 157.382 430.166 128.826C398.256 100.271 291.351 118.244 292.739 37.7442Z" stroke="#94A8D6"/>
<path d="M295.727 36.6755C296.838 -27.7241 153.728 129.892 129.963 138.445C-47.9959 333.407 81.4589 370.985 94.5724 412.969C107.686 454.953 27.7759 485.004 53.8451 523.651C79.9144 562.299 145.17 435.053 178.582 447.178C211.994 459.303 126.519 520.206 136.426 570.24C146.333 620.273 447.567 556.502 415.228 531.132C382.89 505.763 581.357 285.05 547.737 258.675C514.117 232.301 465.064 156.313 433.153 127.758C401.243 99.2023 294.339 117.175 295.727 36.6755Z" stroke="#94A8D6"/>
<path d="M298.714 35.6068C299.825 -28.7928 156.716 128.823 132.951 137.376C-45.0084 332.338 84.4464 369.916 97.5599 411.9C110.673 453.884 30.7634 483.935 56.8327 522.583C82.9019 561.23 148.157 433.985 181.57 446.109C214.982 458.234 129.506 519.137 139.413 569.171C149.32 619.205 450.555 555.433 418.216 530.064C385.877 504.694 584.344 283.981 550.725 257.607C517.105 231.232 468.051 155.244 436.141 126.689C404.231 98.1336 297.326 116.106 298.714 35.6068Z" stroke="#94A8D6"/>
<path d="M301.702 34.538C302.813 -29.8615 159.703 127.755 135.938 136.307C-42.0209 331.27 87.4339 368.848 100.547 410.831C113.661 452.815 33.7509 482.867 59.8202 521.514C85.8895 560.161 151.145 432.916 184.557 445.041C217.969 457.165 132.494 518.069 142.401 568.102C152.308 618.136 453.542 554.365 421.203 528.995C388.865 503.625 587.332 282.913 553.712 256.538C520.092 230.163 471.039 154.176 439.128 125.62C407.218 97.0649 300.314 115.037 301.702 34.538Z" stroke="#94A8D6"/>
<path d="M304.69 33.4693C305.8 -30.9302 162.691 126.686 138.926 135.238C-39.0334 330.201 90.4214 367.779 103.535 409.763C116.648 451.746 36.7384 481.798 62.8077 520.445C88.877 559.093 154.132 431.847 187.545 443.972C220.957 456.097 135.481 517 145.388 567.034C155.295 617.067 456.53 553.296 424.191 527.926C391.852 502.556 590.319 281.844 556.7 255.469C523.08 229.095 474.026 153.107 442.116 124.552C410.206 95.9962 303.301 113.969 304.69 33.4693Z" stroke="#94A8D6"/>
<path d="M307.677 32.4006C308.788 -31.9989 165.679 125.617 141.913 134.17C-36.0458 329.132 93.409 366.71 106.522 408.694C119.636 450.678 39.726 480.729 65.7952 519.377C91.8645 558.024 157.12 430.778 190.532 442.903C223.944 455.028 138.469 515.931 148.376 565.965C158.283 615.999 459.517 552.227 427.178 526.858C394.84 501.488 593.307 280.775 559.687 254.401C526.068 228.026 477.014 152.038 445.104 123.483C413.193 94.9275 306.289 112.9 307.677 32.4006Z" stroke="#94A8D6"/>
<path d="M310.665 31.3319C311.775 -33.0676 168.666 124.549 144.901 133.101C-33.0583 328.064 96.3965 365.641 109.51 407.625C122.624 449.609 42.7135 479.661 68.7828 518.308C94.8521 556.955 160.107 429.71 193.52 441.835C226.932 453.959 141.456 514.863 151.363 564.896C161.27 614.93 462.505 551.159 430.166 525.789C397.827 500.419 596.294 279.706 562.675 253.332C529.055 226.957 480.001 150.97 448.091 122.414C416.181 93.8588 309.276 111.831 310.665 31.3319Z" stroke="#94A8D6"/>
<path d="M313.652 30.2632C314.763 -34.1363 171.654 123.48 147.888 132.032C-30.0707 326.995 99.384 364.573 112.498 406.557C125.611 448.54 45.701 478.592 71.7703 517.239C97.8396 555.887 163.095 428.641 196.507 440.766C229.92 452.891 144.444 513.794 154.351 563.827C164.258 613.861 465.492 550.09 433.154 524.72C400.815 499.35 599.282 278.638 565.662 252.263C532.043 225.889 482.989 149.901 451.079 121.345C419.168 92.7901 312.264 110.763 313.652 30.2632Z" stroke="#94A8D6"/>
<path d="M316.64 29.1945C317.75 -35.2051 174.641 122.411 150.876 130.964C-27.0832 325.926 102.372 363.504 115.485 405.488C128.599 447.472 48.6886 477.523 74.7579 516.171C100.827 554.818 166.082 427.572 199.495 439.697C232.907 451.822 147.432 512.725 157.338 562.759C167.245 612.792 468.48 549.021 436.141 523.651C403.802 498.282 602.269 277.569 568.65 251.194C535.03 224.82 485.976 148.832 454.066 120.277C422.156 91.7213 315.251 109.694 316.64 29.1945Z" stroke="#94A8D6"/>
<path d="M319.627 28.1257C320.738 -36.2738 177.629 121.342 153.863 129.895C-24.0957 324.857 105.359 362.435 118.473 404.419C131.586 446.403 51.6761 476.454 77.7454 515.102C103.815 553.749 169.07 426.504 202.482 438.628C235.895 450.753 150.419 511.656 160.326 561.69C170.233 611.724 471.467 547.953 439.129 522.583C406.79 497.213 605.257 276.5 571.637 250.126C538.018 223.751 488.964 147.763 457.054 119.208C425.143 90.6526 318.239 108.625 319.627 28.1257Z" stroke="#94A8D6"/>
<path d="M322.615 27.057C323.725 -37.3425 180.616 120.274 156.851 128.826C-21.1081 323.789 108.347 361.367 121.46 403.35C134.574 445.334 54.6637 475.386 80.7329 514.033C106.802 552.68 172.057 425.435 205.47 437.56C238.882 449.684 153.407 510.588 163.313 560.621C173.22 610.655 474.455 546.884 442.116 521.514C409.777 496.144 608.244 275.432 574.625 249.057C541.005 222.682 491.952 146.695 460.041 118.139C428.131 89.5839 321.226 107.556 322.615 27.057Z" stroke="#94A8D6"/>
<path d="M325.602 25.9883C326.713 -38.4112 183.604 119.205 159.839 127.757C-18.1206 322.72 111.334 360.298 124.448 402.282C137.561 444.266 57.6512 474.317 83.7205 512.964C109.79 551.612 175.045 424.366 208.457 436.491C241.87 448.616 156.394 509.519 166.301 559.553C176.208 609.586 477.442 545.815 445.104 520.445C412.765 495.076 611.232 274.363 577.612 247.988C543.993 221.614 494.939 145.626 463.029 117.071C431.118 88.5152 324.214 106.488 325.602 25.9883Z" stroke="#94A8D6"/>
<path d="M328.59 24.9196C329.7 -39.4799 186.591 118.136 162.826 126.689C-15.1331 321.651 114.322 359.229 127.435 401.213C140.549 443.197 60.6387 473.248 86.708 511.896C112.777 550.543 178.032 423.297 211.445 435.422C244.857 447.547 159.382 508.45 169.289 558.484C179.195 608.518 480.43 544.746 448.091 519.377C415.752 494.007 614.219 273.294 580.6 246.92C546.98 220.545 497.927 144.557 466.016 116.002C434.106 87.4465 327.202 105.419 328.59 24.9196Z" stroke="#94A8D6"/>
<path d="M331.577 23.8509C332.688 -40.5486 189.579 117.068 165.814 125.62C-12.1455 320.583 117.309 358.161 130.423 400.144C143.536 442.128 63.6263 472.18 89.6956 510.827C115.765 549.474 181.02 422.229 214.432 434.354C247.845 446.478 162.369 507.382 172.276 557.415C182.183 607.449 483.418 543.678 451.079 518.308C418.74 492.938 617.207 272.225 583.587 245.851C549.968 219.476 500.914 143.489 469.004 114.933C437.094 86.3778 330.189 104.35 331.577 23.8509Z" stroke="#94A8D6"/>
<path d="M334.565 22.7822C335.675 -41.6173 192.566 115.999 168.801 124.551C-9.15797 319.514 120.297 357.092 133.41 399.076C146.524 441.059 66.6138 471.111 92.6831 509.758C118.752 548.406 184.008 421.16 217.42 433.285C250.832 445.41 165.357 506.313 175.264 556.346C185.171 606.38 486.405 542.609 454.066 517.239C421.728 491.869 620.194 271.157 586.575 244.782C552.955 218.408 503.902 142.42 471.991 113.864C440.081 85.309 333.177 103.282 334.565 22.7822Z" stroke="#94A8D6"/>
<path d="M337.552 21.7135C338.663 -42.6861 195.554 114.93 171.789 123.482C-6.17044 318.445 123.284 356.023 136.398 398.007C149.511 439.991 69.6013 470.042 95.6706 508.689C121.74 547.337 186.995 420.091 220.407 432.216C253.82 444.341 168.344 505.244 178.251 555.278C188.158 605.311 489.393 541.54 457.054 516.171C424.715 490.801 623.182 270.088 589.562 243.713C555.943 217.339 506.889 141.351 474.979 112.796C443.069 84.2403 336.164 102.213 337.552 21.7135Z" stroke="#94A8D6"/>
<path d="M340.54 20.6447C341.651 -43.7548 198.541 113.861 174.776 122.414C-3.18292 317.376 126.272 354.954 139.385 396.938C152.499 438.922 72.5889 468.973 98.6581 507.621C124.727 546.268 189.983 419.023 223.395 431.147C256.807 443.272 171.332 504.175 181.239 554.209C191.146 604.243 492.38 540.472 460.041 515.102C427.703 489.732 626.17 269.019 592.55 242.645C558.93 216.27 509.877 140.282 477.966 111.727C446.056 83.1716 339.152 101.144 340.54 20.6447Z" stroke="#94A8D6"/>
<path d="M343.527 19.5761C344.638 -44.8235 201.529 112.793 177.764 121.345C-0.195389 316.308 129.259 353.886 142.373 395.869C155.486 437.853 75.5764 467.905 101.646 506.552C127.715 545.199 192.97 417.954 226.383 430.079C259.795 442.203 174.319 503.107 184.226 553.14C194.133 603.174 495.368 539.403 463.029 514.033C430.69 488.663 629.157 267.951 595.538 241.576C561.918 215.202 512.864 139.214 480.954 110.658C449.044 82.1029 342.139 100.075 343.527 19.5761Z" stroke="#94A8D6"/>
<path d="M346.515 18.5073C347.626 -45.8922 204.517 111.724 180.751 120.276C2.79216 315.239 132.247 352.817 145.36 394.801C158.474 436.785 78.564 466.836 104.633 505.483C130.702 544.131 195.958 416.885 229.37 429.01C262.782 441.135 177.307 502.038 187.214 552.072C197.121 602.105 498.355 538.334 466.016 512.964C433.678 487.595 632.145 266.882 598.525 240.507C564.906 214.133 515.852 138.145 483.942 109.59C452.031 81.0342 345.127 99.0067 346.515 18.5073Z" stroke="#94A8D6"/>
<path d="M349.503 17.4386C350.613 -46.9609 207.504 110.655 183.739 119.208C5.77968 314.17 135.234 351.748 148.348 393.732C161.461 435.716 81.5515 465.767 107.621 504.415C133.69 543.062 198.945 415.816 232.358 427.941C265.77 440.066 180.294 500.969 190.201 551.003C200.108 601.037 501.343 537.265 469.004 511.896C436.665 486.526 635.132 265.813 601.513 239.439C567.893 213.064 518.839 137.076 486.929 108.521C455.019 79.9655 348.114 97.938 349.503 17.4386Z" stroke="#94A8D6"/>
</svg>
